<svg xmlns="http://www.w3.org/2000/svg" xmlns:xlink="http://www.w3.org/1999/xlink" width="500" zoomAndPan="magnify" viewBox="0 0 375 374.999991" height="500" preserveAspectRatio="xMidYMid meet" version="1.0"><defs><g/></defs><path fill="#8c52ff" d="M 345.5 47.011719 C 345.246094 44.804688 344.511719 42.8125 342.664062 41.402344 C 342.503906 41.285156 342.503906 41.167969 342.542969 40.996094 C 343.121094 38.707031 342.855469 36.488281 341.902344 34.355469 C 340.972656 32.277344 339.542969 30.671875 337.359375 29.867188 C 336.976562 29.726562 336.871094 29.558594 336.867188 29.164062 C 336.832031 25.292969 333.980469 21.527344 330.253906 20.792969 C 330.027344 20.75 329.878906 20.617188 329.808594 20.402344 C 329.5625 19.675781 329.1875 19.023438 328.683594 18.449219 C 326.050781 15.410156 320.519531 15.082031 317.429688 17.773438 C 317.171875 17.996094 316.972656 18.453125 316.683594 18.421875 C 316.410156 18.390625 316.1875 17.980469 315.921875 17.761719 C 313.984375 16.171875 311.734375 15.6875 309.3125 16.0625 C 306.609375 16.480469 304.53125 17.78125 303.546875 20.472656 C 303.464844 20.6875 303.332031 20.75 303.132812 20.789062 C 302.601562 20.878906 302.09375 21.042969 301.605469 21.277344 C 298.371094 22.921875 296.691406 25.582031 296.511719 29.191406 C 296.496094 29.519531 296.453125 29.710938 296.117188 29.824219 C 295.328125 30.074219 294.621094 30.464844 293.992188 31 C 291.039062 33.636719 290.078125 36.941406 290.789062 40.777344 C 290.851562 41.113281 290.839844 41.316406 290.546875 41.527344 C 290.007812 41.929688 289.570312 42.414062 289.222656 42.988281 C 287.859375 45.191406 287.570312 47.59375 287.964844 50.09375 C 288.285156 52.109375 289.085938 53.898438 290.84375 55.109375 C 291.027344 55.234375 291.03125 55.351562 290.972656 55.542969 C 290.523438 56.914062 290.621094 58.285156 291.0625 59.628906 C 291.949219 62.3125 293.648438 64.402344 295.957031 65.988281 C 297.742188 67.21875 299.6875 67.953125 301.917969 67.539062 C 302.121094 67.503906 302.226562 67.589844 302.339844 67.746094 C 303.019531 68.679688 303.945312 69.285156 304.996094 69.726562 C 306.488281 70.351562 308.046875 70.570312 309.875 70.578125 C 310.386719 70.578125 310.894531 70.542969 311.398438 70.472656 C 313.253906 70.238281 315.027344 69.792969 316.476562 68.519531 C 316.6875 68.332031 316.800781 68.445312 316.945312 68.578125 C 317.507812 69.070312 318.140625 69.449219 318.839844 69.710938 C 321.417969 70.695312 324.066406 70.828125 326.738281 70.242188 C 328.445312 69.867188 330.003906 69.167969 331.070312 67.679688 C 331.179688 67.523438 331.316406 67.515625 331.484375 67.546875 C 333.222656 67.878906 334.839844 67.46875 336.347656 66.628906 C 339.089844 65.109375 341.074219 62.914062 342.175781 59.949219 C 342.714844 58.5 342.867188 57.046875 342.398438 55.558594 C 342.320312 55.3125 342.398438 55.195312 342.589844 55.0625 C 343.402344 54.507812 344.027344 53.792969 344.472656 52.917969 C 345.464844 51.066406 345.734375 49.070312 345.5 47.011719 Z M 345.5 47.011719 " fill-opacity="1" fill-rule="nonzero"/><path fill="#cf8bf3" d="M 307.328125 84.386719 C 305.667969 79.03125 305.679688 78.5625 304.773438 77.269531 C 302.117188 73.5 297.691406 71.472656 297.269531 71.28125 C 296.355469 70.863281 295.472656 70.265625 294.511719 70.074219 C 289.699219 69.101562 288.484375 65.332031 287.59375 61.316406 C 287.125 59.203125 286.835938 57.054688 286.34375 54.949219 C 286.125 54.011719 285.449219 53.289062 284.355469 53.304688 C 283.925781 53.3125 283.671875 53.441406 283.515625 53.644531 C 283.164062 54.09375 282.480469 53.988281 282.339844 53.4375 C 282.050781 52.28125 281.933594 51.125 281.578125 50.039062 C 280.890625 47.960938 280.007812 46.082031 277.371094 46.113281 C 276.234375 46.125 275.976562 44.984375 275.199219 44.523438 C 274.34375 44.011719 273.472656 43.78125 272.570312 44.300781 C 271.460938 44.9375 272.164062 45.796875 272.402344 46.546875 C 273.085938 48.714844 273.523438 50.929688 273.945312 53.445312 C 273.96875 53.597656 273.945312 53.742188 273.871094 53.878906 C 273.796875 54.015625 273.6875 54.113281 273.542969 54.175781 C 273.398438 54.234375 273.253906 54.242188 273.101562 54.203125 C 272.953125 54.160156 272.832031 54.074219 272.738281 53.949219 L 272.726562 53.929688 C 271.625 52.421875 270.441406 50.980469 268.761719 50.078125 C 267.929688 49.632812 266.980469 49.289062 266.136719 49.960938 C 265.117188 50.777344 265.816406 51.738281 266.253906 52.457031 C 269.351562 57.550781 271.625 63.074219 274.4375 68.3125 C 277.535156 74.078125 281.929688 78.007812 287.078125 81.5 C 287.398438 81.71875 287.683594 81.996094 288.023438 82.171875 C 289.296875 82.828125 292.1875 85.226562 293.40625 86.972656 C 295.660156 90.199219 292.707031 93.117188 294.394531 95.703125 C 296.976562 99.664062 308.054688 99.089844 310.050781 94.863281 C 310.632812 93.648438 310.019531 93.042969 307.328125 84.386719 Z M 307.328125 84.386719 " fill-opacity="1" fill-rule="nonzero"/><path fill="#cf8bf3" d="M 325.613281 84.386719 C 327.277344 79.03125 327.265625 78.5625 328.171875 77.269531 C 330.828125 73.5 335.253906 71.472656 335.671875 71.28125 C 336.589844 70.863281 337.46875 70.265625 338.433594 70.074219 C 343.246094 69.101562 344.460938 65.332031 345.351562 61.316406 C 345.820312 59.203125 346.109375 57.054688 346.601562 54.949219 C 346.820312 54.011719 347.492188 53.289062 348.589844 53.304688 C 349.019531 53.3125 349.273438 53.441406 349.429688 53.644531 C 349.78125 54.09375 350.460938 53.988281 350.605469 53.4375 C 350.894531 52.28125 351.011719 51.125 351.367188 50.039062 C 352.050781 47.960938 352.9375 46.082031 355.574219 46.113281 C 356.710938 46.125 356.96875 44.984375 357.746094 44.523438 C 358.601562 44.011719 359.472656 43.78125 360.375 44.300781 C 361.484375 44.9375 360.78125 45.796875 360.542969 46.546875 C 359.859375 48.714844 359.421875 50.929688 359.003906 53.445312 C 358.976562 53.597656 359 53.742188 359.074219 53.878906 C 359.148438 54.015625 359.257812 54.113281 359.402344 54.175781 C 359.546875 54.234375 359.695312 54.242188 359.84375 54.203125 C 359.992188 54.160156 360.113281 54.074219 360.207031 53.949219 L 360.21875 53.929688 C 361.320312 52.421875 362.503906 50.980469 364.183594 50.078125 C 365.015625 49.632812 365.964844 49.289062 366.808594 49.960938 C 367.828125 50.777344 367.128906 51.738281 366.691406 52.457031 C 363.59375 57.550781 361.320312 63.074219 358.507812 68.3125 C 355.410156 74.078125 351.015625 78.007812 345.867188 81.5 C 345.546875 81.71875 345.261719 81.996094 344.921875 82.171875 C 343.648438 82.828125 340.761719 85.226562 339.539062 86.972656 C 337.277344 90.203125 340.230469 93.125 338.546875 95.707031 C 335.960938 99.671875 324.886719 99.097656 322.890625 94.871094 C 322.3125 93.648438 322.925781 93.042969 325.613281 84.386719 Z M 325.613281 84.386719 " fill-opacity="1" fill-rule="nonzero"/><path fill="#ff66c4" d="M 316.097656 91.976562 C 325.882812 86.175781 329.015625 61.261719 316.414062 78.871094 C 311.863281 66.351562 300.925781 77.960938 316.097656 91.976562 " fill-opacity="1" fill-rule="nonzero"/><path stroke-linecap="butt" transform="matrix(0.117434, 0, 0, 0.117434, 257.558133, 0)" fill-opacity="1" fill="#ffffff" fill-rule="nonzero" stroke-linejoin="miter" d="M 454.782261 563.94909 C 441.776239 563.94909 430.566445 562.319179 419.888867 557.861872 C 412.37132 554.701841 405.751887 550.377589 400.895418 543.691629 C 400.063831 542.593934 399.332034 541.928664 397.901705 542.228035 C 381.935233 545.155222 368.031097 539.899591 355.224656 531.118032 C 338.725969 519.741921 326.584797 504.806617 320.231472 485.613587 C 317.071441 475.967177 316.372908 466.187713 319.566202 456.374986 C 320.031891 455.011183 319.965364 454.179596 318.668088 453.248218 C 305.994701 444.599713 300.306646 431.826535 298.011465 417.35692 C 295.150806 399.49443 297.246405 382.297209 306.992606 366.563582 C 309.454104 362.43891 312.614134 358.946244 316.472699 356.085585 C 318.601561 354.588728 318.634825 353.091871 318.2024 350.730164 C 313.113087 323.254527 319.998628 299.637454 341.154203 280.743796 C 345.511719 276.851968 350.501242 274.057836 356.089507 272.361398 C 358.717322 271.563075 359.08322 270.166008 359.183011 267.737774 C 360.447023 241.925311 372.488404 222.898599 395.606524 211.123326 C 399.09919 209.426889 402.72491 208.262667 406.516947 207.63066 C 408.013804 207.53087 409.011708 206.799073 409.477397 205.368744 C 416.529255 186.14245 431.464559 176.795412 450.724116 173.834962 C 468.05439 171.14062 484.153916 174.600022 498.024788 185.976133 C 499.920807 187.539517 501.517454 190.466703 503.48 190.699548 C 505.442545 190.899129 507.005929 187.705834 508.83542 186.04266 C 530.955636 166.816367 570.505918 169.144811 589.366312 190.899129 C 592.958769 195.0238 595.619847 199.680688 597.349548 204.903055 C 597.781974 206.599492 598.879669 207.53087 600.60937 207.697187 C 627.220156 212.986081 647.610671 239.929502 647.843515 267.571457 C 647.843515 270.365589 648.641839 271.596338 651.369445 272.594243 C 667.003282 278.348825 677.248434 289.824727 683.867867 304.693504 C 690.686881 319.961442 692.616164 335.828124 688.491492 352.227021 C 688.19212 353.424506 688.158857 354.22283 689.323079 355.120944 C 702.528681 365.199779 707.784312 379.469813 709.613803 395.236704 C 711.276977 410.005691 709.347695 424.242461 702.329101 437.581118 C 699.16907 443.834653 694.745026 448.957229 688.990444 452.948847 C 687.593378 453.880225 687.061162 454.711812 687.593378 456.474776 C 690.952989 467.119091 689.888558 477.563824 686.029994 487.908768 C 678.146548 509.13087 663.943041 524.831234 644.317586 535.708393 C 633.506954 541.69582 621.964526 544.623006 609.523983 542.261299 C 608.259971 541.79561 607.262066 542.128245 606.497006 543.259203 C 598.879669 553.903518 587.736402 558.926304 575.49544 561.587382 C 556.368937 565.778581 537.442016 564.847204 518.980783 557.795345 C 513.99126 555.899327 509.467426 553.204985 505.442545 549.679055 C 504.378114 548.714414 503.546527 547.916091 502.04967 549.24663 C 491.671463 558.394088 478.998076 561.587382 465.725946 563.250556 C 462.100227 563.749509 458.441244 563.982353 454.782261 563.94909 Z M 554.572709 547.317348 C 556.468728 547.217558 559.628759 547.084504 562.78879 546.918186 C 573.266787 546.385971 582.547298 543.159413 588.86736 534.244799 C 598.946196 520.074556 601.773592 504.374192 597.283021 487.675923 C 594.754997 478.295621 588.035773 472.541039 578.622208 470.478703 C 565.18376 467.551516 552.144475 479.493106 554.472919 496.224638 C 554.838817 499.052034 554.472919 500.016675 551.71205 500.515628 C 547.620641 501.247424 543.59576 502.311856 539.570879 503.376287 C 537.77465 503.875239 537.209171 503.243233 536.810009 501.613323 C 532.485757 484.715473 541.533424 463.826006 556.668309 455.74298 C 579.952747 443.302437 612.484433 460.732502 616.476051 487.74245 C 618.139225 498.985507 616.742159 509.99572 614.047817 520.906143 C 613.249493 524.199228 614.313925 524.764707 617.207848 524.764707 C 622.596532 524.69818 627.719108 523.467431 632.542313 521.105724 C 640.425759 517.380214 647.377827 512.390691 653.465044 506.137156 C 659.552261 499.916885 664.342203 492.7985 667.901396 484.848527 C 670.9949 478.062777 672.292175 470.911128 670.562474 463.426844 C 669.930468 460.732502 668.965827 459.601544 665.772533 459.967442 C 654.76232 461.231454 643.918424 460.300077 633.673272 455.609926 C 619.037339 448.857439 610.688205 437.813962 610.854522 421.248748 C 610.954313 408.27599 615.644464 396.63377 622.596532 385.823139 C 624.658868 382.629844 627.053839 379.602867 629.049648 376.376309 C 635.037075 366.630109 632.409259 355.420315 622.696322 349.366361 C 617.074794 345.940222 610.954313 344.243785 604.368143 344.243785 C 590.763379 344.077467 584.775952 352.093967 582.580562 363.769449 C 581.283286 370.65499 581.948556 377.640322 583.012987 384.625653 C 586.605443 407.943355 573.932056 426.271534 551.013517 430.961685 C 539.005399 433.456446 527.230126 431.826535 515.887279 427.302702 C 513.725152 426.437851 512.727248 426.304797 512.727248 429.231984 C 512.727248 455.144237 512.993356 481.05649 512.494403 507.002007 C 512.394613 511.592367 512.926829 516.215992 512.627457 520.806352 C 511.962188 531.583721 515.953806 538.469262 525.866324 542.693724 C 534.61462 546.485761 543.928395 547.250821 554.572709 547.317348 Z M 494.299278 477.796669 C 494.299278 461.796934 494.299278 445.797198 494.299278 429.797463 C 494.299278 427.036594 493.83359 426.13848 490.97293 427.402492 C 485.417928 429.730936 479.630082 431.161266 473.642655 431.726745 C 464.861096 432.857703 456.312381 431.826535 448.063037 428.666505 C 430.13402 421.614646 420.820244 404.683533 423.913748 385.091342 C 425.244288 376.57589 426.175665 368.093702 423.581114 359.644777 C 420.820244 350.563847 414.367129 344.975581 405.419252 344.376839 C 397.735387 343.744833 390.617002 345.474534 384.097359 349.599206 C 377.644244 353.690614 374.085051 359.511724 374.916638 367.461696 C 375.349063 371.719422 376.912447 375.511459 379.573526 378.837807 C 386.791701 388.218109 392.213649 398.529789 394.907991 410.138745 C 399.997304 431.926326 391.149218 448.824175 370.293014 456.873938 C 360.945975 460.499658 351.166511 461.164927 341.287257 460.000705 C 338.193753 459.634807 337.062794 460.599448 336.430788 463.360317 C 335.100249 469.247954 335.466147 475.002536 337.528483 480.690592 C 343.316329 497.122752 354.359806 509.23066 368.995738 518.278328 C 375.515381 522.269946 382.533976 524.864497 390.384158 524.764707 C 392.945446 524.764707 393.777033 524.099437 393.045236 521.405095 C 391.515116 515.617249 390.517212 509.729612 390.018259 503.775449 C 387.656552 479.958795 397.768651 462.52873 419.123807 454.445704 C 432.662044 449.289864 445.70133 450.520613 456.811333 460.366604 C 469.48472 471.609661 472.811068 486.145803 469.883882 502.44491 C 469.58451 504.241138 468.420289 503.841976 467.355857 503.575868 C 464.162563 502.777545 461.002532 501.945957 457.842501 501.11437 C 452.852979 499.783831 452.852979 499.783831 452.852979 494.761045 C 452.852979 493.763141 452.786452 492.765236 452.852979 491.734068 C 453.119086 481.921341 445.601539 472.407985 435.955129 470.478703 C 424.778599 468.250049 412.47111 476.366339 409.444133 488.474247 C 407.448324 495.925267 407.082426 503.476078 408.346438 511.093415 C 409.577187 518.744016 412.338056 525.762611 416.595782 532.215727 C 418.924226 536.107554 422.01773 539.267585 425.809767 541.762347 C 429.601804 544.223844 433.759739 545.720701 438.25031 546.28618 C 446.433126 547.450402 454.649207 547.683246 462.89855 547.017977 C 469.651037 546.452498 476.303734 545.255012 482.490742 542.228035 C 489.908499 538.535789 494.365805 533.014051 494.232751 524.232491 C 494.132961 508.665181 494.299278 493.230925 494.299278 477.796669 Z M 670.9949 331.903033 C 671.028163 327.844888 670.662265 323.820006 669.897205 319.795125 C 666.903491 305.691408 659.785106 294.91404 645.614862 289.7582 C 643.352945 288.926613 642.088933 289.225984 640.62534 291.38811 C 634.637913 300.635359 626.055934 306.888894 616.143416 311.479254 C 614.214134 312.377368 613.415811 311.978206 612.717278 310.015661 C 611.286948 306.123833 609.723564 302.232006 607.927336 298.473232 C 606.796378 296.111525 607.561438 295.213411 609.657037 294.182243 C 617.340902 290.62305 622.995694 285.001522 626.554886 277.317657 C 635.56929 257.991574 625.423928 234.108393 601.37443 226.690636 C 599.777783 226.191684 599.17904 226.690636 598.813142 228.220756 C 595.719638 240.993934 587.303977 248.744325 575.229332 253.002051 C 570.3396 254.731752 565.483132 256.561244 560.659927 258.423999 C 549.915822 262.681725 544.061449 270.864542 542.265221 282.007808 C 540.502256 292.918231 543.994922 301.766317 553.175643 308.186169 C 557.333578 310.913775 561.824149 313.009374 566.61409 314.373177 C 575.39565 317.200573 583.811311 320.693239 589.998319 327.944678 C 591.162541 329.308481 592.260236 328.842792 593.590775 328.510157 C 610.089462 324.418749 625.191084 327.345936 638.42995 338.056777 C 652.101241 349.100253 655.760224 365.698731 648.17615 380.434454 C 646.313395 383.794066 644.217796 386.954097 641.822825 389.94781 C 637.032884 396.267872 633.074529 403.053623 631.111984 410.837278 C 627.25342 426.205007 634.770967 438.246388 650.171959 441.240101 C 657.589716 442.637167 664.974209 442.37106 672.292175 440.475041 C 677.514542 439.310819 681.572687 436.416896 684.36682 431.859799 C 693.214906 417.489974 694.079757 402.055718 689.223288 386.322091 C 685.79715 375.178824 677.01559 369.091607 666.60412 365.166516 C 664.109359 364.235138 663.577143 363.303761 664.741365 360.742472 C 668.832773 351.561751 670.928373 341.948605 670.9949 331.903033 Z M 315.208686 403.752156 C 315.042369 411.036859 316.306381 418.088717 318.96746 424.907731 C 321.728329 431.693481 325.686683 437.581118 333.10444 439.909562 C 342.451479 442.803485 351.964835 443.169383 361.3784 440.042616 C 372.621458 436.317106 378.475831 426.437851 376.74613 414.695842 C 375.3158 404.716797 370.392804 396.467453 364.405377 388.750325 C 352.430524 373.415859 351.964835 358.480556 362.975048 343.944414 C 373.685889 329.87396 395.174099 323.354318 413.103116 328.44363 C 415.265243 329.075637 416.529255 328.776265 417.992848 327.046564 C 421.385724 323.354318 425.377342 320.460395 430.000966 318.464586 C 435.422913 315.870034 441.277286 314.506231 446.765761 312.144524 C 457.010914 307.687217 464.761305 300.868203 465.160467 288.893349 C 465.592892 276.48607 461.335167 266.107863 449.626421 259.954119 C 444.636898 257.559148 439.514322 255.563339 434.225428 253.966692 C 421.219406 249.642439 411.539733 242.091629 408.213384 228.054439 C 407.914013 226.624109 407.21548 226.291474 405.818414 226.7239 C 391.515116 231.147943 379.240891 242.723635 377.544453 259.155796 C 376.014333 274.157626 383.465353 287.230175 397.635597 294.34856 C 399.697933 295.346465 400.230149 296.244579 399.232244 298.373442 C 397.436016 302.265269 395.806105 306.223624 394.309249 310.248505 C 393.643979 312.044733 392.945446 312.443895 391.115954 311.612308 C 381.103646 306.988684 372.45514 300.668622 366.367923 291.321584 C 365.037384 289.325775 363.839898 288.99314 361.677772 289.7582 C 349.536601 294.049189 341.98579 302.764222 338.592915 314.805602 C 334.102344 330.705547 335.665728 346.272857 342.784114 361.174898 C 343.815281 363.370288 343.648964 364.334929 341.253993 364.966935 C 335.100249 366.763163 329.744828 369.989721 325.254258 374.613345 C 317.038178 382.563317 315.175423 392.874997 315.142159 403.752156 Z M 512.793775 325.117282 C 512.793775 351.129326 512.793775 377.174633 512.793775 403.21994 C 512.793775 405.614911 513.492308 406.84566 515.787488 407.71051 C 525.16779 411.469284 534.880727 412.833087 544.926299 411.801919 C 560.027921 410.105481 567.27936 400.625388 564.851126 385.623558 C 563.620377 378.505172 563.287742 371.32026 563.853221 364.102084 C 564.451964 356.684327 566.713881 349.798787 570.605708 343.445461 C 571.736667 341.61597 575.229332 340.618065 573.799002 337.99025 C 572.801098 336.060968 570.040229 335.295908 567.844839 334.36453 C 566.946725 333.932105 566.015347 333.566207 565.050706 333.200309 C 560.094448 331.30429 554.971871 329.940487 550.215193 327.545516 C 531.820487 318.298268 521.941233 302.232006 524.003569 282.772868 C 526.099168 263.01436 534.681147 247.713157 556.535255 242.158156 C 561.391723 240.993934 566.015347 239.197706 570.3396 236.736208 C 580.185591 231.048152 583.944365 222.033749 580.65128 211.92165 C 579.087896 206.898864 576.227237 202.840719 572.036038 199.680688 C 560.360555 190.899129 547.288007 189.202691 533.550188 193.161045 C 519.81237 197.086136 513.392517 206.034013 512.827038 220.071203 C 512.36135 231.97953 512.926829 243.887857 512.827038 255.829447 C 512.693984 278.914304 512.727248 301.999162 512.727248 325.117282 Z M 494.365805 310.281769 C 494.365805 279.845682 494.365805 249.409595 494.365805 218.973508 C 494.365805 208.994463 489.975025 201.443653 481.359783 196.420867 C 472.777805 191.398081 463.530557 190.333649 453.884147 191.830506 C 444.836479 193.194309 436.753453 196.686975 430.865816 204.004941 C 421.651832 215.414315 424.346174 229.484769 436.986297 236.802735 C 441.709712 239.530341 446.898815 241.027197 452.054655 242.623845 C 458.773878 244.719444 465.193731 247.413786 470.316307 252.436572 C 484.652868 266.473762 487.746372 293.184339 476.969004 310.082188 C 469.750828 321.425036 458.973459 327.745097 446.46639 331.703452 C 442.241927 332.934201 438.217046 334.697165 434.458272 336.992346 C 433.061206 337.89046 432.262883 338.688783 433.85953 340.318694 C 439.01537 345.574324 441.543394 352.12723 442.774143 359.345406 C 444.404054 368.559391 443.60573 377.740112 442.208664 386.920833 C 440.312645 399.59422 446.100492 408.309253 458.574298 411.136649 C 469.58451 413.63141 480.262088 411.801919 490.773349 408.043145 C 493.534218 407.045241 494.465596 405.614911 494.432332 402.654461 C 494.266015 371.819212 494.332542 341.050491 494.332542 310.281769 Z M 494.365805 310.281769 " stroke="#ffffff" stroke-width="3" stroke-opacity="1" stroke-miterlimit="10"/><g fill="#ff66c4" fill-opacity="1"><g transform="translate(4.10523, 70.586354)"><g><path d="M 2.578125 -35.421875 L 15.5 -35.421875 C 19.101562 -35.421875 22.019531 -34.488281 24.25 -32.625 C 26.488281 -30.769531 27.609375 -28.066406 27.609375 -24.515625 C 27.609375 -20.960938 26.476562 -18.175781 24.21875 -16.15625 C 21.957031 -14.144531 19.050781 -13.140625 15.5 -13.140625 L 10.65625 -13.140625 L 10.65625 0 L 2.578125 0 Z M 10.65625 -19.578125 L 12.921875 -19.578125 C 14.722656 -19.578125 16.203125 -19.941406 17.359375 -20.671875 C 18.523438 -21.398438 19.109375 -22.597656 19.109375 -24.265625 C 19.109375 -25.953125 18.523438 -27.160156 17.359375 -27.890625 C 16.203125 -28.617188 14.722656 -28.984375 12.921875 -28.984375 L 10.65625 -28.984375 Z M 10.65625 -19.578125 "/></g></g></g><g fill="#ff66c4" fill-opacity="1"><g transform="translate(32.698457, 70.586354)"><g><path d="M 12.15625 -22.671875 C 13.414062 -22.671875 14.660156 -22.523438 15.890625 -22.234375 C 17.117188 -21.953125 18.035156 -21.671875 18.640625 -21.390625 L 19.53125 -20.953125 L 17.046875 -15.96875 C 15.328125 -16.882812 13.695312 -17.34375 12.15625 -17.34375 C 11.289062 -17.34375 10.679688 -17.25 10.328125 -17.0625 C 9.972656 -16.875 9.796875 -16.523438 9.796875 -16.015625 C 9.796875 -15.898438 9.804688 -15.785156 9.828125 -15.671875 C 9.859375 -15.554688 9.914062 -15.445312 10 -15.34375 C 10.09375 -15.25 10.171875 -15.164062 10.234375 -15.09375 C 10.304688 -15.019531 10.425781 -14.941406 10.59375 -14.859375 C 10.769531 -14.773438 10.90625 -14.707031 11 -14.65625 C 11.101562 -14.613281 11.269531 -14.550781 11.5 -14.46875 C 11.726562 -14.382812 11.898438 -14.320312 12.015625 -14.28125 C 12.128906 -14.238281 12.320312 -14.171875 12.59375 -14.078125 C 12.875 -13.992188 13.082031 -13.9375 13.21875 -13.90625 C 14.113281 -13.65625 14.890625 -13.367188 15.546875 -13.046875 C 16.203125 -12.734375 16.894531 -12.304688 17.625 -11.765625 C 18.351562 -11.222656 18.914062 -10.535156 19.3125 -9.703125 C 19.71875 -8.867188 19.921875 -7.925781 19.921875 -6.875 C 19.921875 -1.863281 16.441406 0.640625 9.484375 0.640625 C 7.910156 0.640625 6.414062 0.398438 5 -0.078125 C 3.582031 -0.566406 2.5625 -1.054688 1.9375 -1.546875 L 0.984375 -2.3125 L 4.078125 -7.515625 C 4.304688 -7.316406 4.601562 -7.078125 4.96875 -6.796875 C 5.34375 -6.523438 6.015625 -6.15625 6.984375 -5.6875 C 7.960938 -5.21875 8.8125 -4.984375 9.53125 -4.984375 C 11.101562 -4.984375 11.890625 -5.507812 11.890625 -6.5625 C 11.890625 -7.050781 11.6875 -7.429688 11.28125 -7.703125 C 10.882812 -7.972656 10.207031 -8.28125 9.25 -8.625 C 8.289062 -8.96875 7.539062 -9.285156 7 -9.578125 C 5.625 -10.296875 4.535156 -11.101562 3.734375 -12 C 2.929688 -12.90625 2.53125 -14.101562 2.53125 -15.59375 C 2.53125 -17.820312 3.394531 -19.554688 5.125 -20.796875 C 6.863281 -22.046875 9.207031 -22.671875 12.15625 -22.671875 Z M 12.15625 -22.671875 "/></g></g></g><g fill="#ff66c4" fill-opacity="1"><g transform="translate(53.821385, 70.586354)"><g><path d="M 19.28125 -22.03125 L 28.03125 -22.03125 L 10.734375 11.15625 L 1.96875 11.15625 L 9.578125 -3.4375 L -0.859375 -22.03125 L 7.90625 -22.03125 L 14.046875 -10.734375 Z M 19.28125 -22.03125 "/></g></g></g><g fill="#ff66c4" fill-opacity="1"><g transform="translate(80.997828, 70.586354)"><g><path d="M 11.203125 7.421875 L 9.28125 4.515625 C 9.363281 4.398438 9.472656 4.253906 9.609375 4.078125 C 9.753906 3.910156 10.054688 3.585938 10.515625 3.109375 C 10.972656 2.640625 11.414062 2.222656 11.84375 1.859375 C 12.28125 1.503906 12.785156 1.179688 13.359375 0.890625 C 13.929688 0.609375 14.457031 0.46875 14.9375 0.46875 L 14.9375 0.296875 C 10.757812 -0.503906 7.390625 -2.5625 4.828125 -5.875 C 2.265625 -9.195312 0.984375 -13.148438 0.984375 -17.734375 C 0.984375 -22.890625 2.703125 -27.234375 6.140625 -30.765625 C 9.578125 -34.296875 13.742188 -36.0625 18.640625 -36.0625 C 23.554688 -36.0625 27.71875 -34.296875 31.125 -30.765625 C 34.53125 -27.234375 36.234375 -22.890625 36.234375 -17.734375 C 36.234375 -13.523438 35.101562 -9.816406 32.84375 -6.609375 C 30.582031 -3.398438 27.609375 -1.238281 23.921875 -0.125 L 23.921875 0.046875 C 24.085938 0.046875 24.84375 0.179688 26.1875 0.453125 C 27.53125 0.722656 28.601562 0.859375 29.40625 0.859375 C 30.5 0.859375 31.488281 0.664062 32.375 0.28125 C 33.257812 -0.101562 33.875 -0.484375 34.21875 -0.859375 L 34.734375 -1.453125 L 37.265625 4 C 37.210938 4.132812 37.117188 4.3125 36.984375 4.53125 C 36.859375 4.75 36.566406 5.128906 36.109375 5.671875 C 35.648438 6.210938 35.140625 6.695312 34.578125 7.125 C 34.023438 7.550781 33.28125 7.9375 32.34375 8.28125 C 31.414062 8.625 30.425781 8.796875 29.375 8.796875 C 27.625 8.796875 25.488281 8.238281 22.96875 7.125 C 20.445312 6.007812 18.269531 5.453125 16.4375 5.453125 C 15.4375 5.453125 14.5 5.613281 13.625 5.9375 C 12.757812 6.269531 12.140625 6.609375 11.765625 6.953125 Z M 9.703125 -17.734375 C 9.703125 -16.359375 9.859375 -15.078125 10.171875 -13.890625 C 10.492188 -12.703125 10.988281 -11.617188 11.65625 -10.640625 C 12.332031 -9.671875 13.265625 -8.90625 14.453125 -8.34375 C 15.640625 -7.789062 17.035156 -7.515625 18.640625 -7.515625 C 21.640625 -7.515625 23.867188 -8.488281 25.328125 -10.4375 C 26.785156 -12.382812 27.515625 -14.816406 27.515625 -17.734375 C 27.515625 -20.617188 26.769531 -23.039062 25.28125 -25 C 23.800781 -26.96875 21.585938 -27.953125 18.640625 -27.953125 C 15.710938 -27.953125 13.488281 -26.960938 11.96875 -24.984375 C 10.457031 -23.015625 9.703125 -20.597656 9.703125 -17.734375 Z M 9.703125 -17.734375 "/></g></g></g><g fill="#ff66c4" fill-opacity="1"><g transform="translate(118.220538, 70.586354)"><g><path d="M 9.75 -22.03125 L 9.75 -11.546875 C 9.75 -9.367188 10.078125 -7.820312 10.734375 -6.90625 C 11.390625 -5.988281 12.503906 -5.53125 14.078125 -5.53125 C 15.648438 -5.53125 16.765625 -5.988281 17.421875 -6.90625 C 18.085938 -7.820312 18.421875 -9.367188 18.421875 -11.546875 L 18.421875 -22.03125 L 26.015625 -22.03125 L 26.015625 -9.703125 C 26.015625 -6.035156 25.0625 -3.394531 23.15625 -1.78125 C 21.257812 -0.164062 18.234375 0.640625 14.078125 0.640625 C 9.929688 0.640625 6.90625 -0.164062 5 -1.78125 C 3.09375 -3.394531 2.140625 -6.035156 2.140625 -9.703125 L 2.140625 -22.03125 Z M 9.75 -22.03125 "/></g></g></g><g fill="#ff66c4" fill-opacity="1"><g transform="translate(146.384439, 70.586354)"><g><path d="M 3.296875 -34.296875 C 4.191406 -35.191406 5.253906 -35.640625 6.484375 -35.640625 C 7.710938 -35.640625 8.769531 -35.191406 9.65625 -34.296875 C 10.539062 -33.410156 10.984375 -32.351562 10.984375 -31.125 C 10.984375 -29.894531 10.539062 -28.835938 9.65625 -27.953125 C 8.769531 -27.066406 7.710938 -26.625 6.484375 -26.625 C 5.253906 -26.625 4.191406 -27.066406 3.296875 -27.953125 C 2.410156 -28.835938 1.96875 -29.894531 1.96875 -31.125 C 1.96875 -32.351562 2.410156 -33.410156 3.296875 -34.296875 Z M 2.578125 -22.03125 L 2.578125 0 L 10.171875 0 L 10.171875 -22.03125 Z M 2.578125 -22.03125 "/></g></g></g><g fill="#ff66c4" fill-opacity="1"><g transform="translate(159.350132, 70.586354)"><g><path d="M 2.578125 -35.421875 L 12.84375 -35.421875 C 17.757812 -35.421875 21.960938 -33.738281 25.453125 -30.375 C 28.953125 -27.007812 30.703125 -22.796875 30.703125 -17.734375 C 30.703125 -12.640625 28.960938 -8.410156 25.484375 -5.046875 C 22.003906 -1.679688 17.789062 0 12.84375 0 L 2.578125 0 Z M 10.65625 -7.21875 L 11.890625 -7.21875 C 14.835938 -7.21875 17.25 -8.210938 19.125 -10.203125 C 21 -12.191406 21.953125 -14.6875 21.984375 -17.6875 C 21.984375 -20.695312 21.046875 -23.203125 19.171875 -25.203125 C 17.296875 -27.203125 14.867188 -28.203125 11.890625 -28.203125 L 10.65625 -28.203125 Z M 10.65625 -7.21875 "/></g></g></g><g fill="#ff66c4" fill-opacity="1"><g transform="translate(191.034525, 70.586354)"><g><path d="M 4.65625 -2.609375 C 2.207031 -4.785156 0.984375 -7.578125 0.984375 -10.984375 C 0.984375 -14.398438 2.253906 -17.203125 4.796875 -19.390625 C 7.347656 -21.578125 10.5 -22.671875 14.25 -22.671875 C 17.945312 -22.671875 21.0625 -21.566406 23.59375 -19.359375 C 26.125 -17.160156 27.390625 -14.367188 27.390625 -10.984375 C 27.390625 -7.609375 26.148438 -4.828125 23.671875 -2.640625 C 21.203125 -0.453125 18.0625 0.640625 14.25 0.640625 C 10.300781 0.640625 7.101562 -0.441406 4.65625 -2.609375 Z M 10.53125 -14.71875 C 9.550781 -13.75 9.0625 -12.503906 9.0625 -10.984375 C 9.0625 -9.472656 9.53125 -8.238281 10.46875 -7.28125 C 11.414062 -6.320312 12.664062 -5.84375 14.21875 -5.84375 C 15.695312 -5.84375 16.914062 -6.328125 17.875 -7.296875 C 18.84375 -8.273438 19.328125 -9.503906 19.328125 -10.984375 C 19.328125 -12.503906 18.832031 -13.75 17.84375 -14.71875 C 16.851562 -15.695312 15.644531 -16.1875 14.21875 -16.1875 C 12.75 -16.1875 11.519531 -15.695312 10.53125 -14.71875 Z M 10.53125 -14.71875 "/></g></g></g><g fill="#ff66c4" fill-opacity="1"><g transform="translate(219.413088, 70.586354)"><g><path d="M 14.296875 -16.4375 C 12.867188 -16.4375 11.640625 -15.90625 10.609375 -14.84375 C 9.578125 -13.789062 9.0625 -12.519531 9.0625 -11.03125 C 9.0625 -9.519531 9.578125 -8.234375 10.609375 -7.171875 C 11.640625 -6.109375 12.867188 -5.578125 14.296875 -5.578125 C 14.984375 -5.578125 15.632812 -5.660156 16.25 -5.828125 C 16.863281 -6.003906 17.316406 -6.179688 17.609375 -6.359375 L 17.984375 -6.609375 L 20.5625 -1.328125 C 20.363281 -1.179688 20.082031 -1 19.71875 -0.78125 C 19.363281 -0.570312 18.550781 -0.285156 17.28125 0.078125 C 16.007812 0.453125 14.644531 0.640625 13.1875 0.640625 C 9.945312 0.640625 7.101562 -0.492188 4.65625 -2.765625 C 2.207031 -5.046875 0.984375 -7.773438 0.984375 -10.953125 C 0.984375 -14.160156 2.207031 -16.914062 4.65625 -19.21875 C 7.101562 -21.519531 9.945312 -22.671875 13.1875 -22.671875 C 14.644531 -22.671875 15.988281 -22.5 17.21875 -22.15625 C 18.445312 -21.8125 19.320312 -21.46875 19.84375 -21.125 L 20.5625 -20.609375 L 17.984375 -15.421875 C 17.046875 -16.097656 15.816406 -16.4375 14.296875 -16.4375 Z M 14.296875 -16.4375 "/></g></g></g><g fill="#ff66c4" fill-opacity="1"><g transform="translate(240.493095, 70.586354)"><g><path d="M 12.15625 -22.671875 C 13.414062 -22.671875 14.660156 -22.523438 15.890625 -22.234375 C 17.117188 -21.953125 18.035156 -21.671875 18.640625 -21.390625 L 19.53125 -20.953125 L 17.046875 -15.96875 C 15.328125 -16.882812 13.695312 -17.34375 12.15625 -17.34375 C 11.289062 -17.34375 10.679688 -17.25 10.328125 -17.0625 C 9.972656 -16.875 9.796875 -16.523438 9.796875 -16.015625 C 9.796875 -15.898438 9.804688 -15.785156 9.828125 -15.671875 C 9.859375 -15.554688 9.914062 -15.445312 10 -15.34375 C 10.09375 -15.25 10.171875 -15.164062 10.234375 -15.09375 C 10.304688 -15.019531 10.425781 -14.941406 10.59375 -14.859375 C 10.769531 -14.773438 10.90625 -14.707031 11 -14.65625 C 11.101562 -14.613281 11.269531 -14.550781 11.5 -14.46875 C 11.726562 -14.382812 11.898438 -14.320312 12.015625 -14.28125 C 12.128906 -14.238281 12.320312 -14.171875 12.59375 -14.078125 C 12.875 -13.992188 13.082031 -13.9375 13.21875 -13.90625 C 14.113281 -13.65625 14.890625 -13.367188 15.546875 -13.046875 C 16.203125 -12.734375 16.894531 -12.304688 17.625 -11.765625 C 18.351562 -11.222656 18.914062 -10.535156 19.3125 -9.703125 C 19.71875 -8.867188 19.921875 -7.925781 19.921875 -6.875 C 19.921875 -1.863281 16.441406 0.640625 9.484375 0.640625 C 7.910156 0.640625 6.414062 0.398438 5 -0.078125 C 3.582031 -0.566406 2.5625 -1.054688 1.9375 -1.546875 L 0.984375 -2.3125 L 4.078125 -7.515625 C 4.304688 -7.316406 4.601562 -7.078125 4.96875 -6.796875 C 5.34375 -6.523438 6.015625 -6.15625 6.984375 -5.6875 C 7.960938 -5.21875 8.8125 -4.984375 9.53125 -4.984375 C 11.101562 -4.984375 11.890625 -5.507812 11.890625 -6.5625 C 11.890625 -7.050781 11.6875 -7.429688 11.28125 -7.703125 C 10.882812 -7.972656 10.207031 -8.28125 9.25 -8.625 C 8.289062 -8.96875 7.539062 -9.285156 7 -9.578125 C 5.625 -10.296875 4.535156 -11.101562 3.734375 -12 C 2.929688 -12.90625 2.53125 -14.101562 2.53125 -15.59375 C 2.53125 -17.820312 3.394531 -19.554688 5.125 -20.796875 C 6.863281 -22.046875 9.207031 -22.671875 12.15625 -22.671875 Z M 12.15625 -22.671875 "/></g></g></g></svg>